<svg width="200" height="200" viewBox="0 0 200 200" fill="none" xmlns="http://www.w3.org/2000/svg">
  <!-- Abstract Uterus/Ovaries Shape -->
  <path d="M100 130C100 130 130 110 150 90C165 75 160 55 145 50C130 45 115 60 110 70C110 70 120 50 100 50C80 50 90 70 90 70C85 60 70 45 55 50C40 55 35 75 50 90C70 110 100 130 100 130Z" fill="#FBC3BC" opacity="0.8"/>
  
  <!-- Left Ovary (Stylized as a Fruit/Leaf) -->
  <circle cx="50" cy="90" r="15" fill="#A0E8AF"/>
  <path d="M50 75C50 75 40 65 35 70C30 75 40 85 40 85" stroke="#4ADE80" stroke-width="2" stroke-linecap="round"/>
  
  <!-- Right Ovary (Stylized as a Fruit/Leaf with Seeds) -->
  <circle cx="150" cy="90" r="15" fill="#D8B4E2"/>
  <circle cx="146" cy="88" r="2" fill="white" opacity="0.6"/>
  <circle cx="154" cy="92" r="2" fill="white" opacity="0.6"/>
  <circle cx="150" cy="95" r="1.5" fill="white" opacity="0.6"/>
  
  <!-- Central Nutrition Element (Leaf sprouting from center) -->
  <path d="M100 130Q100 100 100 80" stroke="#A7F3D0" stroke-width="4" stroke-linecap="round"/>
  <path d="M100 90Q115 80 115 65C115 65 105 60 100 70C95 60 85 65 85 65Q85 80 100 90Z" fill="#34D399"/>
</svg>
